<svg version="1" xmlns="http://www.w3.org/2000/svg" width="346.667" height="346.667" viewBox="0 0 260.000000 260.000000"><path d="M18.5 4.9c-4.8 1.5-8.7 4.4-11.3 8.4l-2.7 4.2L4.3 122C4 232 4 231.7 8.3 231.4c.9-.1 1.7.2 1.7.7 0 .5.6.9 1.4.9.8 0 1.6.7 2 1.5.4 1.1-.1 1.5-1.9 1.5-1.4 0-2.5.6-2.5 1.2 0 .7-.5.5-1.1-.5-.5-.9-1.7-1.7-2.6-1.7-1.3 0-1.4.8-.9 4.1 1.2 7.3 6.7 13.7 13.6 15.7 2.7.8 51.2 1.1 54.9.4 3.6-.8 4.3-2.3 2.8-6.2-.3-.8-.8-2.9-1-4.5-.3-1.7-1-4.8-1.5-7-.6-2.2-1.3-7.4-1.7-11.5-.6-7.5-1.3-14.1-1.8-17-.1-.8.2-1.5.8-1.5.5 0 .8 1 .7 2.1-.2 1.2.4 2.4 1.2 2.7.9.4 1.6 1.9 1.7 3.4 0 1.5.3 2.3.5 1.6.3-.7 1.2-.9 2.1-.6 1.1.5 1.4.3.8-.6-.6-1-.3-1.1 1.3-.2 1.2.6 2.5 1 2.9.9.5-.2 2.3 1.2 4 3 1.8 1.7 3.6 3.2 4 3.2.5 0 1.4.9 2.1 2 .7 1.1 2.1 2 3.1 2 1.1 0 2.3.4 2.6 1 .3.6 1.4 1 2.3 1 1 0 4.1 2.3 7.1 5 3 2.8 6.2 5 7.2 5s2.1.5 2.4 1c.4.6 2.4 1.8 4.5 2.6 3 1.2 4.1 2.4 5.4 5.7.9 2.4 1.6 4.8 1.6 5.5 0 .7 1.5 1.2 3.8 1.2 2 .1 6.3.3 9.5.7 3.1.3 11 .2 17.4-.2 11-.7 11.8-.9 14.2-3.5 3.8-4.1 5.1-5.8 5.1-6.7 0-.5 1.3-2.4 3-4.3 2.3-2.7 3.1-3.2 3.9-2.1.7 1.1 1.1 1 1.9-.5 1.5-2.7 2.7-.9 1.4 2.1-1 2.2-.9 2.5.7 2.5 1.1 0 2.4-1.2 3.1-3 1.4-3.3 2.2-3.7 3.9-1.6 1.5 1.8.5 7.8-2.1 12.5-1 1.8-1.6 3.6-1.3 4 .8.8 33.2 1.1 40.4.4l5.4-.6-2.4-1.9c-2.4-2-2.4-2-.1-1.5 3.5.8 2.6-1-1.3-2.3-1.9-.6-3.5-1.6-3.5-2.1 0-.6.6-.7 1.3-.2.6.4 3.7 1.1 6.7 1.5 3 .4 6.7.9 8.3 1.1 1.5.3 2.7.4 2.7.2 0-.8-6.5-3.5-8.5-3.5-3.1 0-8.5-2-8.5-3.2 0-1 3.9-.1 5.5 1.3.5.5 2.4.9 4.2.9 1.9 0 4.7.7 6.3 1.5 2.6 1.4 2.9 1.3 4.4-1 .8-1.3 1.8-4.2 2.2-6.4.7-4.1.6-4.1-2.5-4.1-1.8 0-3 .4-2.7.9.3.4-1.1.7-3.1.5-2.2-.1-3.2.1-2.4.5 1.7 1.1-3.4 2.4-6 1.6-2.6-.9-1.5-2.4 1.4-1.9 2 .4 2 .4-.2-.6-1.4-.6-3.2-1.2-4-1.4-1.6-.3-4.8-1.5-6.3-2.3-2-1.1-.5 2 2.2 4.4 4 3.5 3.8 4.7-.5 2.9-1.9-.8-3.5-1.2-3.5-.8 0 .4-.4.2-.8-.3-.4-.6-1.8-1.6-3.2-2.4l-2.5-1.4 1.9 2.2c1.4 1.6 1.6 2.1.5 2.1-3.9 0-8.1-11.7-5.2-14.6 2.1-2 2.5-1.7 1.2.8-.6 1.3-.8 2-.4 1.6.4-.4 1.7-.2 2.9.4 1.1.7 2.9 1.3 3.9 1.5 2.2.4-3.7-5.4-6.7-6.6-1.2-.5-2-1.9-2.2-4.4-.2-2 0-3.7.4-3.7.4.1 2.5 2.5 4.6 5.5 2.2 3 4.5 5.5 5.3 5.5 1.6 0 1.6-.5.2-3.1-.5-1.1-1.4-1.7-2-1.4-.5.4-.9-.1-.9-.9 0-.9-.4-1.6-.9-1.6-1.1 0-3.6-5.9-2.8-6.6.3-.3 1.3.7 2.2 2.3.9 1.5 1.4 2 1.1 1-.4-1.3.3-2.3 2.4-3.5 1.6-.9 3-2.4 3-3.2-.1-1.1-.4-1-1.5.4-1.1 1.5-1.5 1.6-1.5.5 0-.8 1.9-2.7 4.3-4.3 2.3-1.6 3.5-2.6 2.6-2.3-1.2.4-1.5 0-1.2-1.7.3-1.6 1.1-2.2 3.2-2.1 2.5 0 2.7.3 2.4 3-.2 1.6-.4 4.1-.4 5.5v2.5l-1.4-2.5c-1.2-2.2-1.4-2.2-1.3-.5.1 1.1-.2 3.1-.6 4.5-.8 2.4-.8 2.4.8.5 1.4-1.9 1.5-1.6 1.6 4.2 0 5.4.4 6.7 3.3 10.5 3.6 4.7 8.4 7 13 6.1l2.8-.6-.3-37.9c-.3-32.3-.5-38-1.8-38.8-1-.7-1.1-1-.2-1 1.7 0 1.5-3.1-.4-5.9-1.4-1.9-1.4-2.5-.3-3.2 1.1-.7 1.1-.9.1-.9-.7 0-1-.4-.7-1 .6-1-.4-2.5-4.5-6.5-2.9-3-1.7-3.3 2.3-.6 1.6 1 2.4 2 1.7 2.3-.7.2-.4 1.1 1 2.3l2.1 1.9-.6-3.4c-.7-3.8-2.3-6.3-3.6-5.5-.4.3-3.1-1-5.9-3-2.8-2-5.5-3.3-6-3-1.2.8-5-1.2-5-2.7 0-.6.7-.5 1.8.3 1.5 1.3 1.6 1.2.3-.4-.8-.9-1.6-1.5-1.9-1.2-.7.7-3.2-1.5-3.2-2.7 0-.6.8-.4 1.8.3 1.5 1.3 1.6 1.2.3-.3-.7-1-1.7-1.5-2.2-1.3-1 .7-3.2-3.3-3.4-6.2 0-1.3-.6-2.8-1.3-3.5-1.1-1.1-1.2-.9-.6.7 1.4 4-1.3 0-3.1-4.5-.9-2.5-2-5.1-2.3-5.9-.4-1-.1-1.2.9-.7.8.4.6.1-.3-.7-1-.8-1.5-1.7-1.1-2 .3-.4-.2-.9-1.1-1.3-.9-.3-1.6-1.7-1.6-3s-.4-2.4-.8-2.4c-.9 0-5.2-8.4-5.2-10.2 0-1.8 4.8 5.9 6.5 10.4 1.4 3.9 1.5 4 1 .9-.5-3.6-7.1-17.7-8.6-18.7-.5-.3-1.6-2-2.5-3.7l-1.7-3.2 2.8 2.5c4.9 4.4 1.3-.9-5.8-8.6-3.5-3.8-7.1-8.3-8-9.9-1.7-3.4-13.4-16-14.8-16-.5 0-3.1-2.4-5.8-5.3-2.6-2.8-4.7-5.2-4.5-5.2 1 0-5.9-6.4-8.7-8.1-7.4-4.3-15.9-7.8-17.6-7.4-1.1.4-.9.1.4-.6 5-2.7 23.7 4.6 36.4 14.1 11.2 8.4 27.9 26.6 32.1 35 .6 1.4 1.7 3.2 2.4 4 .6.8 3 4.9 5.1 9 7.5 14.2 13.1 23.5 16.7 27.8 6.5 7.8 16.8 24.2 16.2 25.7-.3.9.3 1.9 1.5 2.5 2 1.1 2 .8 1.7-53.2l-.3-54.3-2.4-3.8c-1.3-2.1-4.2-5.1-6.5-6.5l-4.1-2.7-49.2-.3C159.8 4 144 4.3 144 5c0 .5-2.2 1-4.9 1s-6.8.7-9.1 1.5-4.6 1.2-5.1.9c-.5-.3-.9.4-.9 1.5s-.4 2.3-1 2.6c-1 .6-5.1-1.2-6.1-2.6-.7-1.2-4.6-1.4-9-.5-4.3.9-6.2-.8-2.1-1.9 1.5-.4 5.4-.9 8.7-1 3.3-.2 6.1-.9 6.3-1.4.4-1.2-98.7-1.4-102.3-.2zm81.5 5.6c-1.4.7-2.7 1.1-3 .9-.6-.7 2.2-2.4 4-2.3.9 0 .5.6-1 1.4zM94.8 14c-.7 1.1-2 2-2.8 2-1.1-.1-.8-.6.9-2 3-2.5 3.4-2.5 1.9 0zM87 20.5c-.7.9-1.5 1.3-1.9 1-.3-.3.1-1 .9-1.5 2.1-1.4 2.4-1.2 1 .5zm62.8 6.7c9 4.5 15.2 10.2 15.2 13.9 0 5.8 4.7 14.8 11.5 22 3.6 3.8 6.5 7.3 6.5 7.8 0 .4-2.1.4-4.7 0-10-1.6-17.8-.4-17.8 2.9 0 .7-1.5 2.2-3.2 3.3-2.3 1.4-3.3 1.7-3.3.8 0-.7-.2-1-.5-.7-.3.3-.1 1.7.5 3.2l1 2.8 3.1-2.6c1.9-1.6 4.3-2.6 6.3-2.6 1.8 0 5.8-.5 8.9-1.1 5.5-1.1 5.9-1.1 9.7 1.6 3.7 2.6 5.9 6 4.6 7.2-.3.4-2.3-.1-4.3-1-2.1-.9-6.3-1.8-9.3-2.2-4.4-.4-6.1-.2-8.7 1.5-1.8 1.1-3.3 2.5-3.3 3.1 0 .8.6.7 1.8-.3.9-.8 2.5-1.8 3.5-2.1 3.1-1.1 1.8.8-2.3 3.3-2.1 1.3-3.7 2.6-3.4 2.9.2.2 1.7-.4 3.2-1.5 1.5-1.2 4.2-2.6 6-3.2l3.3-1.1-.7 3.3c-.5 2.8-.2 3.6 1.7 5 1.3.9 3.8 1.6 5.6 1.6 3.5 0 5.1 1.6 3.4 3.3-1.8 1.8-1.3 4.5 1 5.2 1.1.4 2.5 1.8 3.1 3.1 1.5 3.2 5.5 3.3 6.1.1.3-2.1.4-2 1.6.8.9 2.2 1 5.3.3 12-.6 5.6-.5 9.7 0 10.9.7 1.2.7 1.6 0 1.2-1.2-.7-2.2 1.6-2.2 5.4 0 1.6-.4 3.2-1 3.5-.5.3-1 1.5-1 2.5s-.8 2.3-1.7 2.9c-1 .5-1.5 1.3-1.1 1.7.4.4 1.5.1 2.4-.7 1.5-1.2 1.6-1.1.9 1.1-.8 2.6-3.5 5.8-3.5 4.2 0-.6-.8-.8-1.8-.5-1.2.3-2.5 2.4-3.7 6.1-2.1 6.7-7.2 17.2-8.3 17.2-1.5 0-1-3.4 1.4-10.7 2.1-6.3 2.3-8 1.5-13-1.2-7.5-3.1-11.7-8-18.3-3.4-4.6-3.8-5.5-2.5-6.7.8-.8 1.4-2.3 1.4-3.3 0-3.6-2.2-12.2-4.3-16.9-1.2-2.5-2.1-4.8-2.2-5.1 0-.3-.6-1.4-1.3-2.5-1.2-1.8-1.3-1.8-.7.8.5 2.5-.1 3.4-4.6 7.5-2.9 2.6-5.5 4.8-6 5-.4.2-2.1-.6-3.7-1.8-3.1-2.3-7.8-3.1-10.4-1.8-.9.4-2.2 2.4-2.8 4.3-.6 1.9-1.6 3.5-2.1 3.5-1.4 0-1.1 5.4.4 6.9 1.2 1.3 1.4 1.1-5.8 6.6-1.1.8-4.1 3.1-6.6 5-4.4 3.4-9.9 11.6-9.9 14.8 0 .8-.6 2-1.3 2.6-.9.7-1.5 3.6-1.6 7.7-.1 3.8-1.1 8.8-2.2 11.7-1.1 2.7-1.8 5.6-1.5 6.3.3.7.1 1.6-.5 2-.6.3-.8 1.2-.5 1.9.2.7-.2 2.4-.9 3.8-.7 1.5-1.1 3.5-.8 4.7.4 1.3.1 2-1 2-.8 0-1.7-.9-2-2.1-.8-2.9-2.5-1.5-3.3 2.6-.8 4.4-1.4 4.8-4.2 2.5-1.7-1.4-1.9-2.1-1-2.7 1.7-1.1 1.7-8.6.1-9.6-.7-.4-1.3-1.6-1.3-2.7 0-1-1.5-2.7-3.2-3.9-1.8-1.1-2.9-2.1-2.4-2.1s-.3-1-1.8-2.1c-1.5-1.2-3-1.9-3.3-1.5-.9.8-6.2-6.6-6.3-8.7 0-1-.7-2.5-1.5-3.3-.8-.9-1.5-3-1.5-4.7 0-1.8-.5-4.8-1-6.7-.6-1.9-1-12.8-1-24.4.1-27.4.2-28.2 12.1-49.1 1.8-3.3 6.8-9.6 11-14 7.1-7.4 9.4-11 13-20.4 3.2-8.4 8.5-11.6 24.9-15.1 9.2-1.9 15-1.2 23.8 3.2zm-71.3 9.9c-.4.5-1.3.9-2.1.9-1.2 0-1.2-.2-.2-1.4 1.4-1.5 3.2-1.1 2.3.5zM67 48.4c0 .3-.4.8-1 1.1-.5.3-1 .1-1-.4 0-.6.5-1.1 1-1.1.6 0 1 .2 1 .4zM176 90c0 .5-.2 1-.4 1-.3 0-.8-.5-1.1-1-.3-.6-.1-1 .4-1 .6 0 1.1.4 1.1 1zm-29.9 26.8c-1.7.6 1.7 4.2 4 4.2 2.8 0 3.1 1.6.4 2.8-1.8.8-2.5.8-2.8-.1-.3-.9-.9-.9-2.6.1-1.9 1.1-2.1 1-1.8-1 .2-1.8-.4-2.4-2.5-2.6-2.1-.3-2.8.1-2.8 1.4 0 1.3-.3 1.4-1.5.4-.8-.7-1.5-.9-1.5-.6 0 .4-.9.2-2-.4-1.1-.6-2-1.7-2-2.4 0-1.7 2.7-2.9 3.5-1.6 1 1.6 5.8 1.1 9-.9 1.8-1.1 3.2-1.4 3.4-.7.2.5-.1 1.2-.8 1.4zm17.6 3.9c-2.7 2.8-4 .9-1.5-2.2 2-2.5 2.3-2.7 2.6-1.1.2 1-.3 2.5-1.1 3.3zm63.3 1.4c0 .6-.4.7-1 .4-.5-.3-1-1.1-1-1.6 0-.6.5-.7 1-.4.6.3 1 1.1 1 1.6zm-209 9.3c0 .3-.4.8-1 1.1-.5.3-1 .1-1-.4 0-.6.5-1.1 1-1.1.6 0 1 .2 1 .4zm30.1.3c0 .5.2 1.6.4 2.5.2.9-.1 3.4-.5 5.5-1.2 5-.4 5.5 1.5 1 1-2.4 2.2-3.8 3.5-3.9 1.1 0 2.6-.1 3.3-.2.6-.1 1.2.9 1.2 2 .1 1.2.6 2.8 1.1 3.5 1.3 1.6 1.3 10.7 0 12.7-.5.8-.4 1.8.3 2.5 1.6 1.6 1.4 12.4-.1 13-3 1-9-3.9-12.6-10.4-1.1-2-2.6-4.6-3.3-5.7-2-3.2 1.5-23.2 4.1-23.2.5 0 1 .3 1.1.7zm102.8 1.2c1.6 1 .6 3.1-1.5 3.1-.8 0-1.4.5-1.4 1.1 0 .6-.7.3-1.6-.5-.8-.9-1.9-1.6-2.4-1.6s-.7-.7-.4-1.5c.7-1.6 5.1-2 7.3-.6zM60 134c0 .5-.4 1-1 1-.5 0-1-.5-1-1 0-.6.5-1 1-1 .6 0 1 .4 1 1zm170.5 4c.3.5.2 1-.4 1-.5 0-1.3-.5-1.6-1-.3-.6-.2-1 .4-1 .5 0 1.3.4 1.6 1zm-216.3 5.5c.3 1.4.2 2.8-.2 3-.8.5-2-2.8-2-5.3 0-2.2 1.7-.4 2.2 2.3zm141.1-1.6c.7 1 2 2 3 2.4.9.3 1.7 1.6 1.7 2.7s.7 2 1.5 2 1.5.7 1.5 1.5c0 1.9-1.6 2-2.7.1-2.1-3.6-21.5-5-27.9-2-1.9.9-3.7 1.4-4 1.1-.9-.8.6-4.7 1.7-4.7.5 0 2.3-1 3.8-2.1 1.6-1.2 3.4-1.9 3.9-1.5.6.3 1.3.2 1.7-.3.3-.6 3.7-1 7.6-.9 5.3 0 7.2.4 8.2 1.7zm76.7 3.3c1.6 2.4 2 2.7 1.5 1-.4-1.2-.2-2.2.3-2.2 1 0 3.2 4.4 3.2 6.4 0 2.3-2.9 2.7-4 .6-.6-1.1-1.7-2-2.5-2-1.8 0-5.5-3.5-5.5-5.1 0-.6.9-.9 2-.6 1.1.3 1.8.1 1.4-.4-.3-.5-.1-.9.4-.9.6 0 2 1.5 3.2 3.2zm11-1.7c1.4 1.6 1 1.8-1.4.9-.9-.3-1.6-1-1.6-1.5 0-1.4 1.6-1.1 3 .6zm4.5 2.5c.3.5.2 1-.4 1-.5 0-1.3-.5-1.6-1-.3-.6-.2-1 .4-1 .5 0 1.3.4 1.6 1zm-1.7 2.8c1.8 1.4 2.4 3 2.7 7 .2 2.9-.1 5.5-.6 5.8-.5.3-.9 1.8-.9 3.4 0 3.6-1 6.1-2.1 5.5-.4-.3-.4-1.7.1-3.1 1.4-3.6 1.2-10.1-.4-13.2-2-3.9-2.9-7.2-1.9-7.2.4 0 1.8.9 3.1 1.8zM32 150c0 .5-.2 1-.4 1-.3 0-.8-.5-1.1-1-.3-.6-.1-1 .4-1 .6 0 1.1.4 1.1 1zm-19 5c0 1.3-.1 1.3-1 0-.5-.8-1-2.2-1-3 0-1.3.1-1.3 1 0 .5.8 1 2.2 1 3zm225-.6c0 .8-.4 1.7-.9 2.1-1.2.7-2.4-1.2-1.6-2.5.9-1.5 2.5-1.2 2.5.4zM129.5 159c20.6 1.9 23 2.2 25 3 5.3 2.2 10.9 1.6 12.7-1.3.5-.9 1-.9 1.8-.1 1.1 1.1.5 10.4-.6 10.4-.9 0-5.9-3.5-7-4.9-.8-1.1-1.3-.7-2.3 1.8-1.3 3.1-1.4 3.1-8.4 3-4-.1-9.4-.9-12.4-2-2.9-1-6-1.6-6.8-1.3-.7.3-2.3 0-3.5-.6-1.1-.6-3-.8-4-.5-1.7.5-2 1.6-2 6.4 0 5.2.3 5.9 2.5 6.9 1.8.8 2.6.8 3.1 0s1-.5 1.4.7c.4 1.1 1.8 2.2 3.1 2.5 2.6.6 3.5 3.1 2.3 5.8-.4.9-.6 2.2-.5 2.9.3 2.1-1.9 2.5-4.4.9-1.6-1-2.6-1.2-3-.5-.5.6-1.2.6-2.3-.3-1.2-1-1.6-1-1.9-.1-.3.7-2.1 1.3-4 1.3-2.8 0-4.3-.8-7.4-4-2.2-2.2-4-4.3-4-4.8-.7-3.7-.6-6.5.1-11.5.7-4.7 1.7-6.8 5.1-10.8 2.9-3.5 4.7-4.8 5.8-4.4.9.3 6.1 1 11.6 1.5zm120.7 11.2c-.7.7-1.2.8-1.2.2 0-1.4 1.2-2.6 1.9-1.9.2.3-.1 1.1-.7 1.7zm-2.2 2.1c0 1-3.3 6.8-3.6 6.4-.7-.7 1.7-6.7 2.7-6.7.5 0 .9.2.9.3zm-5 9.9c0 3.6-.9 3.3-1.6-.6-.2-1.4 0-2.6.6-2.6.5 0 1 1.4 1 3.2zm-98.9 4.4c1 2 1 2.7.1 3.3-.7.4-1 1.5-.6 2.4.3 1 .1 1.7-.5 1.7-.7 0-1.1.6-.9 1.2.6 2.7-1 2.1-4.1-1.4-3.2-3.7-3.2-3.7-1.3-5.6 1.3-1.3 1.6-2.4 1.1-2.9-.6-.6.1-1 1.9-1.1 2.2 0 3.3.6 4.3 2.4zm97.9.6c0 .7-.4 1.9-.9 2.7-.7 1-.9.7-.8-1.2.2-2.6 1.7-3.9 1.7-1.5zm-88.6 3.4c.9 2.4.2 2.6-1.2.4-.7-1.1-.8-2-.3-2s1.2.7 1.5 1.6zm83.9 2.4c-.3 1.2-.8 1.9-1.1 1.6-.5-.6.5-3.6 1.2-3.6.2 0 .2.9-.1 2zm-138.1 2.5c0 .5-.5 1.1-1.1 1.3-.6.2-1.1-.4-1.1-1.3s.5-1.5 1.1-1.3c.6.2 1.1.8 1.1 1.3zM217 211.9c-.1 1.3-3-3.4-3-4.8 0-.9.7-.3 1.5 1.3.8 1.5 1.5 3.1 1.5 3.5z"/><path d="M110.7 63.8c-3.7.3-7.7 3.1-7.7 5.2 0 1.1 2.8.6 9.4-1.6 3.3-1.1 4.4-1.1 6.7.2 1.5.8 3.3 1.4 3.9 1.4 1.4 0 1.3-4-.2-4.4-2.4-.8-8.3-1.2-12.1-.8zM125 63.9c0 2.3 1.3 4.1 3 4.1 2.2 0 3.6-1.8 2.4-3-1.5-1.3-5.4-2.2-5.4-1.1zM110.8 76.6c-2.6.8-4.7 1.8-4.5 2.2.1.4-1 2.1-2.5 3.7-2.7 2.9-3.5 4.5-2.2 4.5.4 0 2.4-1.6 4.5-3.5 4.2-3.7 6.5-4.5 5.5-1.9-1 2.7 1.3 4.4 6 4.4 3.7 0 4.4-.3 4.4-2 0-2.6.8-2.5 3.8.2 2.3 2.1 2.4 2.1 1.8.4-.4-1.1-.2-2.2.4-2.6.8-.5.4-1.6-1.2-3.3-2.9-3.2-9.5-4.1-16-2.1zm5.7 5.4c.3.5.1 1-.4 1-.6 0-1.1-.5-1.1-1 0-.6.2-1 .4-1 .3 0 .8.4 1.1 1zM154 85c0 .5.5 1 1 1 .6 0 1-.5 1-1 0-.6-.4-1-1-1-.5 0-1 .4-1 1zM155.3 90.5c1.3 4.4 2.9 4.7 1.6.3-.5-1.8-.9-3.4-.9-3.5 0-.2-.4-.3-.9-.3s-.4 1.5.2 3.5zM185.3 148.5c-.6 1.4-.7 2.5-.2 2.5.5 0 .9-.5.9-1.1 0-.5.4-.8.8-.5.4.2.8-.4.8-1.5 0-2.6-.9-2.4-2.3.6zM156 165c0 .5.7.7 1.5.4.8-.4 1.5-.8 1.5-1 0-.2-.7-.4-1.5-.4s-1.5.4-1.5 1zM171 18.7c0 .6.8 1.7 1.8 2.4 1.6 1.3 1.6 1.3.2-.6-.8-1.1-1.6-2.2-1.7-2.4-.2-.2-.3 0-.3.6zM180 27.5c0 .3 1.6 2 3.5 3.7 3.5 3 4.2 5.5.9 2.7-3.8-3.1.5 2.7 6 8 3 3 5.3 5.8 5.1 6.2-.3.4 1.6 2.9 4.1 5.6 2.5 2.6 3.6 3.5 2.5 1.9-1.2-1.6-2.1-3.4-2.1-4 0-.7-2.2-3.9-4.9-7.3s-4.6-6.5-4.3-6.9c.4-.4.2-.4-.4-.1-.7.4-1.7 0-2.4-.8s-.9-1.5-.5-1.5c.9 0-3.2-5.1-5.5-6.7-1.1-.8-2-1.1-2-.8zM214.6 75c.6.8 4.2 6.2 8 12s7.2 10.9 7.6 11.5c.4.5 1 .6 1.4.3.7-.8-13.6-21.7-16.3-23.9-1.6-1.2-1.7-1.2-.7.1zM220 88c0 .8 6.8 17 9 21.3 1.1 2 3.5 5.4 5.2 7.4 8.9 10.1 11.1 12.3 12.1 12.3.6 0 .3-.8-.6-1.8-11.5-12.6-14.7-17.1-14.7-20.7 0-.8-.5-1.5-1-1.5-.6 0-1.8-1.7-2.7-3.8-3.2-7.4-3.8-8.7-4.4-9.2-.3-.3-1.1-1.4-1.7-2.5-.6-1.1-1.2-1.8-1.2-1.5zM236.2 101.2c1.2 1.8 3.4 4.5 4.7 6 1.4 1.6 2.1 2.8 1.6 2.8s-2.7-1.9-4.8-4.3l-3.9-4.2 3.1 4.4c1.7 2.4 2.8 4.8 2.5 5.2-.3.5.2.6 1 .3 1-.4 1.9.1 2.3 1.2.4 1.1 1.3 2.5 2 3.2.6.7.9 2 .6 2.9-.4 1-.2 1.4.4 1 .7-.5 1 .1.9 1.6-.2 1.6.2 2.3 1.6 2.3 1.9 0 2.5-3 .8-4.1-.5-.3-.7-1.1-.4-1.8.2-.7-.4-2.1-1.5-3.1s-1.8-2.3-1.5-2.8c.3-.4.2-.7-.3-.6-.4.2-.9 0-1-.5-1.1-3.4-8.3-12.7-9.9-12.7-.2 0 .6 1.5 1.8 3.2z"/><path d="M241 115.4c0 .2.8 1 1.8 1.7 1.5 1.3 1.6 1.2.3-.4s-2.1-2.1-2.1-1.3zM249 128c4.5 3.9 6.2 3.9 2.5 0-1.6-1.7-3.6-3-4.4-3-1 .1-.4 1.1 1.9 3zM232 216.1c0 .5.5.7 1 .4.6-.3 1-.8 1-1.1 0-.2-.4-.4-1-.4-.5 0-1 .5-1 1.1zM228 218.1c0 .5.5.7 1 .4.6-.3 1-.8 1-1.1 0-.2-.4-.4-1-.4-.5 0-1 .5-1 1.1zM222 230.6c0 .6.7 1.9 1.6 3 1.4 1.8 1.4 1.8.3-.6-1.4-3.1-1.9-3.6-1.9-2.4z"/></svg>