<?xml version="1.0" encoding="utf-8"?>
<!-- Generator: Adobe Illustrator 22.1.0, SVG Export Plug-In . SVG Version: 6.00 Build 0)  -->
<svg version="1.1" id="Layer_1" xmlns="http://www.w3.org/2000/svg" xmlns:xlink="http://www.w3.org/1999/xlink" x="0px" y="0px"
	 viewBox="0 0 103.5 132.5" style="enable-background:new 0 0 103.5 132.5;" xml:space="preserve">
<style type="text/css">
	.st0{fill:#5E5E5E;}
</style>
<title>daveIcon</title>
<g id="Layer_2_1_">
	<g id="Layer_1-2">
		<g id="mcZJi9.tif">
			<path class="st0" d="M77.9,132.5c-8.9-2.7-12.1-15.6-5.4-23.1c3.1-3.5,3.7-6.4,2.6-10.7c-1-3.9-0.8-8.1-1.2-13.1
				c-7,6.8-14,12.6-23.7,10.5c-9.2-2-15.2-8.4-20.6-17.6c0,9.1,0.2,16.9-0.1,24.6c-0.2,3.8-0.9,7.6-2.1,11.2
				c-0.4,1.4-1.1,5.9-4.4,1.7c-0.1-0.2-1.2,0.1-1.6,0.4c-3.4,2.7-6.8,5.4-10.3,8c-0.8,0.3-1.8,0.3-2.5-0.3c-0.9-1.4-1.5-2.9-1.6-4.6
				c0.1-3.5-0.6-5.2-4.7-4.4c-2.3,0.4-3.1-1.1-1.3-3c2.9-3.1,3.3-6.6,2.1-10.6c-1.5-5.2-0.4-9.9,4-13.5c1.3-1,2.4-2.3,3.3-3.7
				c1.3-2.4,3.5-5.4-2.1-5.4c-0.9,0-1.8-1.1-2.8-1.7c0.7-0.8,1.4-1.6,2.2-2.3c6-4.7,8.7-10.6,7.9-18.3c-0.7-5.1-0.9-10.3-0.6-15.4
				c0.4-3.8,1.5-7.4,3.4-10.7c3.5-6.2,7.7-12,11.4-18.1c3.8-6.3,8-11.6,16.5-9.9c0.3,0.1,0.7,0.1,1,0C59-3.8,67.8,3.1,75.6,9.9
				c10.5,9,17.4,20.3,16.8,35.2c-0.2,3.8,2.1,8,3.9,11.7c3.4,7.1,5.8,14,2.6,22c-1.2,3-0.2,6.8-1,10.8l-4.3-7.1l-0.8,0.2
				c0.6,2.5,1.4,4.9,2.4,7.2c2.3,5,5.4,9.6,7.4,14.7c2.6,6.8-0.5,11.7-7.5,13.5c-5.3,1.4-10.5,2.9-15.7,4.7c-1,0.3-1.8,2.2-2,3.4
				C77.4,128.2,77.6,130.4,77.9,132.5z M69.2,80.3c7.4-4.5,7.9-8.4,4.9-14.9c-2.2-4.6-3.3-9.6-3.1-14.7c0.4-9.4-1.2-17.4-9.3-23.3
				c-2.2-1.6-3.7-4.2-5-6.7s-1.3-6.9-3-7.6c-2.5-1-6,0.6-9,1.2c-0.2,0-0.3,0-0.5,0.1c-3.7,0.3-5.6,2.7-5.3,6
				c1,10.2-3.2,18.8-7.9,27.3c-3.9,7.2-3.7,15-1,22.3c1.5,4.2,5,7.6,7.6,11.4c2.2-13.1,5.8-19.5,12.6-19.5c4.2,0,8.8,0.2,12.4,1.9
				C68.7,66.8,69.8,73.3,69.2,80.3z M53.8,68.3v0.2c-1.5,0-3.4-0.6-4.4,0.1c-2.7,1.9-6,3.9-7.1,6.6c-0.8,1.8,1,5.7,2.7,7.5
				c4.3,4.8,11.6,5.2,16.4,1c0.3-0.3,0.6-0.6,0.9-0.9c1.8-1.9,3.8-5.7,3-7.5c-1.1-2.8-4.4-4.8-7.1-6.7
				C57.2,67.9,55.3,68.3,53.8,68.3L53.8,68.3z"/>
			<path class="st0" d="M53.8,74.7c1-0.1,2-0.1,3,0c1.7,0.3,3.3,0.8,4.9,1.2c-1.4,1.5-2.5,3.4-4.2,4.3c-3.6,1.9-7.1,1-10.1-1.6
				c-0.8-0.7-1-1.9-1.5-2.9c1-0.5,2-0.9,3-1.1C50.5,74.7,52.2,74.7,53.8,74.7z"/>
		</g>
	</g>
</g>
</svg>
