<svg xmlns="http://www.w3.org/2000/svg" viewBox="0 0 52.5 52.5"><defs><style>.cls-1{fill:#f2863d;}</style></defs><title>Facebook</title><g id="Layer_2" data-name="Layer 2"><g id="Layer_1-2" data-name="Layer 1"><path class="cls-1" d="M52.5,46.88a5.6,5.6,0,0,1-5.62,5.62h-10V31.76h7l1-8H36.91v-5a4.63,4.63,0,0,1,.71-2.81,4,4,0,0,1,3.16-1.06H45v-7a44.86,44.86,0,0,0-6.09-.35,10.1,10.1,0,0,0-7.45,2.75,10.42,10.42,0,0,0-2.75,7.68v5.86H21.56v8h7.15V52.5H5.62a5.43,5.43,0,0,1-4-1.64,5.43,5.43,0,0,1-1.64-4V5.62a5.43,5.43,0,0,1,1.64-4A5.43,5.43,0,0,1,5.62,0H46.88a5.43,5.43,0,0,1,4,1.64,5.43,5.43,0,0,1,1.64,4Z"/></g></g></svg>