<svg xmlns="http://www.w3.org/2000/svg" viewBox="0 0 52.5 52.5"><defs><style>.cls-1{fill:#f2863d;}</style></defs><title>Github</title><g id="Layer_2" data-name="Layer 2"><g id="Layer_1-2" data-name="Layer 1"><path class="cls-1" d="M46.88,0a5.43,5.43,0,0,1,4,1.64,5.43,5.43,0,0,1,1.64,4V46.88a5.6,5.6,0,0,1-5.62,5.62H5.62a5.43,5.43,0,0,1-4-1.64,5.43,5.43,0,0,1-1.64-4V5.62a5.43,5.43,0,0,1,1.64-4A5.43,5.43,0,0,1,5.62,0ZM32.46,45a18.51,18.51,0,0,0,9.43-7.09,19.59,19.59,0,0,0,3.58-11.54,18.11,18.11,0,0,0-2.64-9.61A18.82,18.82,0,0,0,35.74,10,19.78,19.78,0,0,0,26,7.5,19.45,19.45,0,0,0,16.35,10a17.65,17.65,0,0,0-6.86,6.8A19.12,19.12,0,0,0,7,26.37a19.42,19.42,0,0,0,3.63,11.54A18.89,18.89,0,0,0,20.16,45a1.08,1.08,0,0,0,1-.18,1,1,0,0,0,.3-.76v-4.8L20,39.49a10.17,10.17,0,0,1-2.93-.35,3.51,3.51,0,0,1-2.23-2.23l-.58-1.17a3.51,3.51,0,0,0-1.53-1.64,1.78,1.78,0,0,1-.7-.58c-.23-.4,0-.59.82-.59l.47.12a2.7,2.7,0,0,1,1.29.58,3.84,3.84,0,0,1,1.17,1.29A3.77,3.77,0,0,0,18.87,37a5.61,5.61,0,0,0,2.69-.47A4.05,4.05,0,0,1,22.73,34a19.79,19.79,0,0,1-4.1-.82,5.77,5.77,0,0,1-3.28-2.34,9.81,9.81,0,0,1-1.29-5.39,6.71,6.71,0,0,1,.41-2.52,6.52,6.52,0,0,1,1.47-2.05A6.47,6.47,0,0,1,15.47,19a7.33,7.33,0,0,1,.58-3.39c.71-.24,1.8,0,3.29.82l2.11,1.29A16.76,16.76,0,0,1,26.31,17a20,20,0,0,1,4.86.59c.63-.39,1.33-.78,2.11-1.17,1.49-.79,2.58-1.06,3.28-.82A7.21,7.21,0,0,1,37.15,19a12.4,12.4,0,0,1-.35,1.88,7.72,7.72,0,0,1,1.4,2,5.24,5.24,0,0,1,.59,2.58,9.16,9.16,0,0,1-1.41,5.39,5.74,5.74,0,0,1-3.28,2.34,22.49,22.49,0,0,1-4.22.82,4.32,4.32,0,0,1,1.29,3.52v6.56a.94.94,0,0,0,.35.76A1.06,1.06,0,0,0,32.46,45ZM14.18,33.87q.12-.12-.12-.24c-.15-.08-.27-.08-.35,0s0,.18.18.3S14.18,34,14.18,33.87Zm.82.82c.16-.08.16-.2,0-.35s-.29-.18-.41-.06-.1.25.06.41S14.92,34.84,15,34.69Zm.82,1.17c.16-.08.16-.24,0-.47s-.31-.29-.47-.18-.15.28,0,.47S15.66,35.94,15.82,35.86Zm1.06,1c.07-.07,0-.23-.18-.46s-.35-.28-.47-.12-.08.33.12.53S16.72,37.07,16.88,36.91Zm1.4.71c.08-.24,0-.39-.29-.47s-.45,0-.53.17,0,.34.29.41S18.2,37.77,18.28,37.62Zm1.64.11c0-.23-.13-.35-.41-.35s-.41.1-.41.3.14.29.41.29S19.92,37.89,19.92,37.73Zm1.06.12c.31-.08.45-.21.41-.41s-.2-.27-.47-.23-.39.15-.35.35S20.74,37.85,21,37.85Z"/></g></g></svg>