<svg xmlns="http://www.w3.org/2000/svg" viewBox="0 0 90 86"><defs><style>.cls-1{fill:#f1c40f;}</style></defs><title>goldStar</title><g id="Layer_2" data-name="Layer 2"><g id="Layer_1-2" data-name="Layer 1"><path class="cls-1" d="M71.16,86A3,3,0,0,0,74,82.79a.77.77,0,0,0,0-.15l-3.15-27,18.43-20a3,3,0,0,0-1.61-5L60.93,25.26,47.61,1.52A3,3,0,0,0,43.52.39a3.06,3.06,0,0,0-1.13,1.13L29.07,25.26,2.4,30.6A3,3,0,0,0,.06,34.14a3,3,0,0,0,.73,1.44l18.43,20-3.16,27a3,3,0,0,0,4.24,3.09L45,74.38,69.7,85.73A3.18,3.18,0,0,0,71.16,86Z"/></g></g></svg>