<?xml version="1.0" encoding="utf-8"?>
<!-- Generator: Adobe Illustrator 22.1.0, SVG Export Plug-In . SVG Version: 6.00 Build 0)  -->
<svg version="1.1" id="Layer_1" xmlns="http://www.w3.org/2000/svg" xmlns:xlink="http://www.w3.org/1999/xlink" x="0px" y="0px"
	 viewBox="0 0 90 86" style="enable-background:new 0 0 90 86;" xml:space="preserve">
<style type="text/css">
	.st0{fill:#878787;}
</style>
<title>grayStar</title>
<g id="Layer_2_1_">
	<g id="Layer_1-2">
		<path class="st0" d="M45,21.4l5.5,9.7l2.7,4.8l5.4,1.1l11.1,2.2L62,47.5l-3.7,4.1l0.6,5.5l1.3,11.1L50,63.5l-5-2.3l-5,2.3
			l-10.2,4.7L31.1,57l0.6-5.5L28,47.4l-7.6-8.2l11-2.2l5.4-1.1l2.7-4.8L45,21.4 M45,0c-0.5,0-1,0.1-1.5,0.4l0,0
			C43,0.7,42.7,1,42.4,1.5L29.1,25.3L2.4,30.6c-1.6,0.3-2.7,1.9-2.3,3.5l0,0c0.1,0.5,0.4,1,0.7,1.4l18.4,20l-3.2,27
			c-0.2,1.6,1,3.1,2.6,3.3c0.1,0,0.2,0,0.4,0c0.4,0,0.9-0.1,1.3-0.3L45,74.4l24.7,11.3c0.4,0.2,0.8,0.3,1.3,0.3c0.1,0,0.1,0,0.2,0
			c1.7-0.1,2.9-1.5,2.8-3.1c0,0,0,0,0-0.1c0,0,0-0.1,0-0.2l-3.1-27l18.4-20c1.1-1.2,1.1-3.1-0.1-4.2c-0.4-0.4-0.9-0.7-1.5-0.8
			L61,25.2L47.6,1.5C47.1,0.5,46,0,45,0L45,0z"/>
	</g>
</g>
</svg>
