<svg xmlns="http://www.w3.org/2000/svg" viewBox="0 0 52.5 52.5"><defs><style>.cls-1{fill:#f2863d;}</style></defs><title>LinkedIn</title><g id="Layer_2" data-name="Layer 2"><g id="Layer_1-2" data-name="Layer 1"><path class="cls-1" d="M48.75,0a3.62,3.62,0,0,1,2.64,1.11A3.62,3.62,0,0,1,52.5,3.75v45a3.79,3.79,0,0,1-3.75,3.75h-45a3.62,3.62,0,0,1-2.64-1.11A3.62,3.62,0,0,1,0,48.75v-45A3.62,3.62,0,0,1,1.11,1.11,3.62,3.62,0,0,1,3.75,0ZM12,16.52a4.44,4.44,0,0,0,3.23-1.34,4.41,4.41,0,0,0,0-6.33A4.41,4.41,0,0,0,12,7.5,4.2,4.2,0,0,0,8.79,8.85a4.53,4.53,0,0,0,0,6.33A4.22,4.22,0,0,0,12,16.52ZM15.82,45h.12V19.92H8.09V45ZM45,45V31.29q0-5.87-1.64-8.56-2.22-3.39-7.62-3.39a9.09,9.09,0,0,0-4.8,1.28,6.67,6.67,0,0,0-2.58,2.7h-.12v-3.4h-7.5V45h7.74V32.58a9.6,9.6,0,0,1,.82-4.46,4.14,4.14,0,0,1,3.86-2,3.37,3.37,0,0,1,3.52,2.23,12.41,12.41,0,0,1,.59,4.45V45Z"/></g></g></svg>