<?xml version="1.0" encoding="utf-8"?>
<!-- Generator: Adobe Illustrator 22.1.0, SVG Export Plug-In . SVG Version: 6.00 Build 0)  -->
<svg version="1.1" id="Layer_1" xmlns="http://www.w3.org/2000/svg" xmlns:xlink="http://www.w3.org/1999/xlink" x="0px" y="0px"
	 viewBox="0 0 50.8 92.2" style="enable-background:new 0 0 50.8 92.2;" xml:space="preserve">
<style type="text/css">
	.st0{fill:#FFFFFF;}
	.st1{fill:#E5803C;}
	.st2{fill:#F2863D;}
</style>
<g id="Layer_2_1_">
	<g id="Layer_1-2">
		<path class="st0" d="M9.3,30c0,8.9,7.2,16.1,16.1,16.1l0,0c8.9,0,16.1-7.2,16.1-16.1c0-8.9-7.2-16.1-16.1-16.1l0,0
			C16.5,13.8,9.3,21.1,9.3,30C9.3,30,9.3,30,9.3,30z"/>
		<path class="st1" d="M25.4,46.1L25.4,46.1c-8.9,0-16.1-7.2-16.1-16.1c0-8.9,7.2-16.1,16.1-16.1l0,0V0c-57.1,6.3,0,92.2,0,92.2
			V46.1z"/>
		<path class="st2" d="M25.4,0v13.8c8.9,0,16.1,7.2,16.1,16.1c0,8.9-7.2,16.1-16.1,16.1v46.2C25.4,92.2,82.5,6.3,25.4,0z"/>
	</g>
</g>
</svg>
