<?xml version="1.0" encoding="utf-8"?>
<!-- Generator: Adobe Illustrator 22.1.0, SVG Export Plug-In . SVG Version: 6.00 Build 0)  -->
<svg version="1.1" id="Layer_1" xmlns="http://www.w3.org/2000/svg" xmlns:xlink="http://www.w3.org/1999/xlink" x="0px" y="0px"
	 viewBox="0 0 78 78.6" style="enable-background:new 0 0 78 78.6;" xml:space="preserve">
<style type="text/css">
	.st0{fill:#5E5E5E;}
</style>
<g>
	<path class="st0" d="M63.7,50c-4.6,0-8.6,2.2-11.2,5.5L28.1,43c0.3-1.2,0.5-2.4,0.5-3.7c0-1.4-0.3-2.7-0.7-4l24.2-12.4
		c2.6,3.5,6.7,5.7,11.4,5.7c8.1,0,14.5-6.4,14.5-14.3S71.6,0,63.7,0S49.4,6.4,49.4,14.3c0,1.3,0.2,2.5,0.6,3.7L25.5,30.5
		c-2.6-3.3-6.7-5.5-11.2-5.5C6.4,25,0,31.4,0,39.3s6.4,14.3,14.3,14.3c4.7,0,8.8-2.3,11.4-5.8L50,60.3c-0.4,1.3-0.7,2.6-0.7,4
		c0,7.9,6.4,14.3,14.3,14.3c8,0,14.4-6.4,14.4-14.3S71.6,50,63.7,50z"/>
</g>
</svg>
