<svg xmlns="http://www.w3.org/2000/svg" viewBox="0 0 52.5 52.5"><defs><style>.cls-1{fill:#f2863d;}</style></defs><title>Twitter</title><g id="Layer_2" data-name="Layer 2"><g id="Layer_1-2" data-name="Layer 1"><path class="cls-1" d="M46.88,0a5.43,5.43,0,0,1,4,1.64,5.43,5.43,0,0,1,1.64,4V46.88a5.6,5.6,0,0,1-5.62,5.62H5.62a5.43,5.43,0,0,1-4-1.64,5.43,5.43,0,0,1-1.64-4V5.62a5.43,5.43,0,0,1,1.64-4A5.43,5.43,0,0,1,5.62,0ZM41.13,18.63a16.83,16.83,0,0,0,3.87-4,15.94,15.94,0,0,1-4.45,1.17A7.91,7.91,0,0,0,44,11.6,14.78,14.78,0,0,1,39,13.48,7.12,7.12,0,0,0,33.52,11a7.6,7.6,0,0,0-4.28,1.28,7.77,7.77,0,0,0-2.87,3.46A7.41,7.41,0,0,0,26,20.51a21.11,21.11,0,0,1-8.91-2.4,23.13,23.13,0,0,1-7-5.69A7.3,7.3,0,0,0,9,16.23a7.6,7.6,0,0,0,3.52,6.5A8,8,0,0,1,9,21.68v.12a7.48,7.48,0,0,0,1.76,4.92,7.83,7.83,0,0,0,4.45,2.69,10.21,10.21,0,0,1-3.51.12,7.24,7.24,0,0,0,2.69,3.81,7.34,7.34,0,0,0,4.46,1.46,15.08,15.08,0,0,1-9.49,3.29H7.5a21.79,21.79,0,0,0,11.84,3.39,21.63,21.63,0,0,0,12-3.39,21.29,21.29,0,0,0,7.38-8.32,22.57,22.57,0,0,0,2.46-10.2Z"/></g></g></svg>